# xmcd
#
# Track frame offsets:
#	150
#	61873
#	134428
#
# Disc length: 4261 seconds
#
# Revision: 3
# Processed by: cddbd v1.5.2PL0 Copyright (c) Steve Scherf et al.
# Submitted via: audiograbber 1.83.01
#
DISCID=2310a303
DTITLE=Klaus Schulze - Eternal [The 70th Birthday Edition] [CD 2)
DYEAR=2017
DGENRE=Electronic
TTITLE0=Schrittmacher
TTITLE1=Ion/Andromeda - The Ion Perspective
TTITLE2=Andromeda - The Grand Trance
EXTD=
EXTT0=
EXTT1=
EXTT2=
PLAYORDER=
